<svg width="90" height="26" viewBox="0 0 90 26" fill="none" xmlns="http://www.w3.org/2000/svg">
<g clip-path="url(#clip0_107_133)">
<path d="M36.68 13.98V20.46C36.68 20.8 36.4 21.08 36.06 21.08H34.48C34.14 21.08 33.86 20.8 33.86 20.46V13.93C33.86 11.45 31.94 9.29 29.46 9.23C26.98 9.17 24.82 11.2 24.82 13.75V21.08H22.01V0.62C22.01 0.28 22.29 0 22.63 0H24.2C24.54 0 24.82 0.28 24.82 0.62V8C26.05 7.01 27.57 6.44 29.24 6.41C33.33 6.35 36.68 9.88 36.68 13.97V13.98Z" fill="#8774B5"/>
<path d="M51.48 6.41992H53.04C53.38 6.41992 53.66 6.69992 53.66 7.03992V20.4599C53.66 20.7999 53.38 21.0799 53.04 21.0799H51.48C51.14 21.0799 50.86 20.7999 50.86 20.4599V19.4899C49.63 20.4799 48.09 21.0599 46.41 21.0799C42.53 21.1199 39.21 18.0099 39.01 14.1399C38.79 9.89992 42.14 6.41992 46.33 6.41992C48.04 6.41992 49.6 6.99992 50.85 8.00992V7.03992C50.85 6.69992 51.13 6.41992 51.47 6.41992H51.48ZM46.82 9.24992C43.93 8.94992 41.54 11.3399 41.84 14.2299C42.06 16.3199 43.76 18.0199 45.85 18.2399C48.74 18.5399 51.13 16.1499 50.83 13.2599C50.61 11.1699 48.91 9.46992 46.82 9.24992Z" fill="#8774B5"/>
<path d="M65.55 7.04V8.6C65.55 8.94 65.27 9.22 64.93 9.22H62.69C62.35 9.22 62.07 9.5 62.07 9.84V20.45C62.07 20.79 61.79 21.07 61.45 21.07H59.86C59.52 21.07 59.24 20.79 59.24 20.45V9.84C59.24 9.5 58.96 9.22 58.62 9.22H56.41C56.07 9.22 55.79 8.94 55.79 8.6V7.04C55.79 6.7 56.07 6.42 56.41 6.42H58.65C58.99 6.42 59.27 6.14 59.27 5.8V0.62C59.27 0.28 59.55 0 59.89 0H61.45C61.79 0 62.07 0.28 62.07 0.62V5.79C62.07 6.13 62.35 6.41 62.69 6.41H64.93C65.27 6.41 65.55 6.69 65.55 7.03V7.04Z" fill="#8774B5"/>
<path d="M76.18 7.04V8.6C76.18 8.94 75.9 9.22 75.56 9.22H73.32C72.98 9.22 72.7 9.5 72.7 9.84V20.45C72.7 20.79 72.42 21.07 72.08 21.07H70.49C70.15 21.07 69.87 20.79 69.87 20.45V9.84C69.87 9.5 69.59 9.22 69.25 9.22H67.04C66.7 9.22 66.42 8.94 66.42 8.6V7.04C66.42 6.7 66.7 6.42 67.04 6.42H69.28C69.62 6.42 69.9 6.14 69.9 5.8V0.62C69.9 0.28 70.18 0 70.52 0H72.08C72.42 0 72.7 0.28 72.7 0.62V5.79C72.7 6.13 72.98 6.41 73.32 6.41H75.56C75.9 6.41 76.18 6.69 76.18 7.03V7.04Z" fill="#8774B5"/>
<path d="M89.29 7.31992L80.14 25.6199C80.03 25.8299 79.82 25.9599 79.58 25.9599H77.83C77.37 25.9599 77.07 25.4699 77.27 25.0599L81.57 16.4699C81.66 16.2899 81.66 16.0899 81.57 15.9099L77.27 7.31992C77.06 6.90992 77.36 6.41992 77.83 6.41992H79.58C79.82 6.41992 80.03 6.54992 80.14 6.76992L82.71 11.9399C82.94 12.3999 83.59 12.3999 83.83 11.9399L86.43 6.76992C86.54 6.55992 86.75 6.42992 86.99 6.42992H88.74C89.2 6.42992 89.5 6.91992 89.3 7.32992L89.29 7.31992Z" fill="#8774B5"/>
<path d="M5.96997 10.54C5.96997 11.4 6.65997 12.09 7.51997 12.09C8.37997 12.09 9.06997 11.4 9.06997 10.54C9.06997 9.67999 8.37997 8.98999 7.51997 8.98999C6.65997 8.98999 5.96997 9.67999 5.96997 10.54Z" fill="#8774B5"/>
<path d="M14 8.98999C13.14 8.98999 12.45 9.67999 12.45 10.54C12.45 11.4 13.14 12.09 14 12.09C14.86 12.09 15.55 11.4 15.55 10.54C15.55 9.67999 14.86 8.98999 14 8.98999Z" fill="#8774B5"/>
<path d="M19.03 4.29C17.86 2.71 16.25 1.45 14.34 0.71C14.05 0.6 13.76 0.5 13.46 0.41C13.39 0.39 13.32 0.37 13.25 0.35C13.12 0.32 12.99 0.27 12.86 0.24C12.76 0.22 12.67 0.21 12.57 0.19C12.41 0.16 12.25 0.13 12.09 0.11C11.91 0.08 11.72 0.06 11.54 0.04C11.37 0.02 11.2 0.01 11.02 0.01C10.84 0.01 10.66 0 10.47 0C10.3 0 10.13 0 9.96999 0.02C9.77999 0.03 9.58998 0.04 9.40998 0.06C9.33998 0.06 9.26999 0.06 9.20998 0.08C9.10998 0.09 9.01999 0.12 8.91998 0.13C8.73998 0.16 8.55999 0.19 8.37998 0.23C8.18999 0.27 7.99999 0.32 7.80999 0.37C7.67999 0.41 7.53999 0.44 7.40999 0.49C7.17999 0.56 6.95998 0.64 6.73998 0.73C6.65999 0.76 6.57999 0.79 6.49999 0.83C6.23999 0.94 5.98998 1.06 5.73998 1.18C5.69999 1.2 5.65999 1.22 5.61999 1.24C5.33998 1.39 5.06999 1.55 4.80999 1.72C4.79998 1.72 4.77999 1.74 4.76999 1.75C4.48998 1.93 4.21999 2.13 3.95999 2.34C1.09999 4.62 -0.490015 8.32 0.139985 12.22C0.509985 14.55 1.65999 16.6 3.28999 18.14C4.44999 19.26 5.85998 20.12 7.46999 20.62C7.60998 20.66 7.74999 20.69 7.88999 20.72C8.04998 20.76 8.19998 20.8 8.35998 20.84C8.52998 20.88 8.70998 20.91 8.87998 20.94C9.07998 20.97 9.27998 21 9.47998 21.02C9.62998 21.04 9.78998 21.05 9.93998 21.06C10.16 21.07 10.37 21.07 10.59 21.07C10.73 21.07 10.88 21.07 11.02 21.07C11.04 21.07 11.06 21.07 11.08 21.07C11.22 21.07 11.36 21.04 11.51 21.03C11.72 21.01 11.93 21 12.14 20.97C12.35 20.94 12.56 20.89 12.76 20.84C12.9 20.81 13.05 20.79 13.19 20.75C13.9 20.57 14.58 20.31 15.21 20C15.35 19.93 15.49 19.84 15.63 19.77C15.79 19.68 15.96 19.6 16.11 19.5C16.14 19.48 16.17 19.47 16.2 19.45C17.02 18.92 17.77 18.28 18.41 17.56C18.67 17.26 18.64 16.81 18.33 16.57L17 15.54C16.73 15.33 16.33 15.35 16.1 15.61C15.66 16.11 15.15 16.54 14.58 16.9C14.39 17.02 14.2 17.13 14 17.23C13.87 17.3 13.73 17.36 13.59 17.42C13.54 17.44 13.49 17.47 13.44 17.49C12.83 17.74 12.18 17.92 11.5 18.01C11.04 18.07 10.58 18.08 10.14 18.06C10.04 18.06 9.93999 18.05 9.83998 18.04C9.73998 18.04 9.63999 18.02 9.54998 18.01C9.36998 17.99 9.18999 17.96 9.00998 17.92C8.94998 17.91 8.87998 17.89 8.81998 17.88C8.63998 17.84 8.46999 17.79 8.29998 17.74C8.23998 17.72 8.17998 17.7 8.10998 17.68C7.90998 17.61 7.70999 17.53 7.50999 17.45C7.33999 17.56 7.16998 17.68 6.98998 17.79C6.53999 18.08 5.99999 18.32 5.45999 18.24C5.31999 18.22 5.18999 18.18 5.11999 18.04C5.04998 17.91 5.04998 17.76 5.11999 17.64C5.34999 17.22 5.56999 16.8 5.79999 16.37C3.60999 14.56 2.52999 11.58 3.31999 8.62C3.32999 8.57 3.34999 8.53 3.35999 8.48C3.40999 8.31 3.46999 8.15 3.51999 7.99C3.56999 7.87 3.60999 7.75 3.66999 7.63C3.69999 7.55 3.73999 7.47 3.77999 7.39C3.85999 7.22 3.93999 7.06 4.02999 6.9C4.04999 6.86 4.06998 6.82 4.09999 6.79C4.19999 6.62 4.30999 6.45 4.42999 6.29C4.45999 6.25 4.48998 6.21 4.51999 6.17C4.62999 6.03 4.73998 5.89 4.84999 5.75C4.91999 5.67 4.97999 5.6 5.04999 5.53C5.12999 5.45 5.20999 5.36 5.28999 5.28C5.42999 5.14 5.56998 5.01 5.71999 4.89C5.72999 4.88 5.73999 4.87 5.75999 4.86C7.62999 3.31 10.23 2.66 12.7 3.38C12.83 3.42 12.96 3.47 13.09 3.51C13.18 3.54 13.28 3.58 13.37 3.61C13.42 3.63 13.47 3.66 13.53 3.68C14.11 3.93 14.66 4.25 15.15 4.65V4.63C15.7 5.04 16.17 5.52 16.57 6.06C16.77 6.34 17.16 6.4 17.46 6.21L18.88 5.31C19.21 5.1 19.29 4.65 19.05 4.33L19.03 4.29Z" fill="#8774B5"/>
</g>
<defs>
<clipPath id="clip0_107_133">
<rect width="89.36" height="25.97" fill="white"/>
</clipPath>
</defs>
</svg>
