<svg width="17" height="18" viewBox="0 0 17 18" fill="none" xmlns="http://www.w3.org/2000/svg">
<path d="M8.5 12.75C6.545 12.75 4.95833 11.07 4.95833 9C4.95833 6.93 6.545 5.25 8.5 5.25C10.455 5.25 12.0417 6.93 12.0417 9C12.0417 11.07 10.455 12.75 8.5 12.75ZM8.5 6.75C7.33125 6.75 6.375 7.7625 6.375 9C6.375 10.2375 7.33125 11.25 8.5 11.25C9.66875 11.25 10.625 10.2375 10.625 9C10.625 7.7625 9.66875 6.75 8.5 6.75ZM9.20833 3V0.75C9.20833 0.3375 8.88958 0 8.5 0C8.11042 0 7.79167 0.3375 7.79167 0.75V3C7.79167 3.4125 8.11042 3.75 8.5 3.75C8.88958 3.75 9.20833 3.4125 9.20833 3ZM9.20833 17.25V15C9.20833 14.5875 8.88958 14.25 8.5 14.25C8.11042 14.25 7.79167 14.5875 7.79167 15V17.25C7.79167 17.6625 8.11042 18 8.5 18C8.88958 18 9.20833 17.6625 9.20833 17.25ZM3.54167 9C3.54167 8.5875 3.22292 8.25 2.83333 8.25H0.708333C0.31875 8.25 0 8.5875 0 9C0 9.4125 0.31875 9.75 0.708333 9.75H2.83333C3.22292 9.75 3.54167 9.4125 3.54167 9ZM17 9C17 8.5875 16.6812 8.25 16.2917 8.25H14.1667C13.7771 8.25 13.4583 8.5875 13.4583 9C13.4583 9.4125 13.7771 9.75 14.1667 9.75H16.2917C16.6812 9.75 17 9.4125 17 9ZM4.75292 5.0325C5.02917 4.74 5.02917 4.2675 4.75292 3.975L3.33625 2.475C3.06 2.1825 2.61375 2.1825 2.3375 2.475C2.06125 2.7675 2.06125 3.24 2.3375 3.5325L3.75417 5.0325C3.89583 5.1825 4.07292 5.25 4.25708 5.25C4.44125 5.25 4.61833 5.175 4.76 5.0325H4.75292ZM14.6696 15.5325C14.9458 15.24 14.9458 14.7675 14.6696 14.475L13.2529 12.975C12.9767 12.6825 12.5304 12.6825 12.2542 12.975C11.9779 13.2675 11.9779 13.74 12.2542 14.0325L13.6708 15.5325C13.8125 15.6825 13.9896 15.75 14.1737 15.75C14.3579 15.75 14.535 15.675 14.6767 15.5325H14.6696ZM3.33625 15.5325L4.75292 14.0325C5.02917 13.74 5.02917 13.2675 4.75292 12.975C4.47667 12.6825 4.03042 12.6825 3.75417 12.975L2.3375 14.475C2.06125 14.7675 2.06125 15.24 2.3375 15.5325C2.47917 15.6825 2.65625 15.75 2.84042 15.75C3.02458 15.75 3.20167 15.675 3.34333 15.5325H3.33625ZM13.2529 5.0325L14.6696 3.5325C14.9458 3.24 14.9458 2.7675 14.6696 2.475C14.3933 2.1825 13.9471 2.1825 13.6708 2.475L12.2542 3.975C11.9779 4.2675 11.9779 4.74 12.2542 5.0325C12.3958 5.1825 12.5729 5.25 12.7571 5.25C12.9412 5.25 13.1183 5.175 13.26 5.0325H13.2529Z" fill="#8774B5"/>
</svg>
