<svg width="301" height="331" viewBox="0 0 301 331" fill="none" xmlns="http://www.w3.org/2000/svg">
<g clip-path="url(#clip0_17_49)">
<path d="M93.5896 165.075C93.5896 178.557 104.406 189.374 117.888 189.374C131.37 189.374 142.187 178.557 142.187 165.075C142.187 151.593 131.37 140.776 117.888 140.776C104.406 140.776 93.5896 151.593 93.5896 165.075Z" fill="#8774B5"/>
<path d="M219.473 140.776C205.991 140.776 195.174 151.593 195.174 165.075C195.174 178.557 205.991 189.374 219.473 189.374C232.955 189.374 243.772 178.557 243.772 165.075C243.772 151.593 232.955 140.776 219.473 140.776Z" fill="#8774B5"/>
<path d="M298.327 67.2529C279.985 42.4838 254.746 22.7312 224.803 11.1304C220.257 9.406 215.711 7.83833 211.008 6.42743C209.91 6.1139 208.813 5.80036 207.716 5.48683C205.678 5.01653 203.64 4.2327 201.602 3.7624C200.034 3.44887 198.623 3.2921 197.055 2.97857C194.547 2.50827 192.039 2.03797 189.531 1.72443C186.709 1.25413 183.73 0.9406 180.908 0.627066C178.243 0.313533 175.578 0.156767 172.757 0.156767C169.935 0.156767 167.113 0 164.134 0C161.469 0 158.804 0 156.296 0.313533C153.318 0.4703 150.339 0.627066 147.517 0.9406C146.42 0.9406 145.322 0.9406 144.382 1.25413C142.814 1.4109 141.403 1.8812 139.836 2.03797C137.014 2.50827 134.192 2.97857 131.37 3.60563C128.392 4.2327 125.413 5.01653 122.435 5.80036C120.397 6.42743 118.202 6.89773 116.164 7.68156C112.558 8.77893 109.109 10.0331 105.66 11.444C104.406 11.9143 103.152 12.3846 101.898 13.0116C97.8222 14.7361 93.903 16.6173 89.9838 18.4985C89.3568 18.812 88.7297 19.1255 88.1026 19.4391C83.7132 21.7906 79.4805 24.2988 75.4045 26.9639C75.2478 26.9639 74.9342 27.2774 74.7775 27.4342C70.388 30.256 66.1553 33.3913 62.0794 36.6834C17.2441 72.2694 -7.68179 130.273 2.19451 191.412C7.99488 227.939 26.023 260.076 51.576 284.218C69.7609 301.776 91.865 315.258 117.104 323.096C119.299 323.723 121.494 324.193 123.689 324.664C126.197 325.291 128.548 325.918 131.057 326.545C133.722 327.172 136.544 327.642 139.209 328.113C142.344 328.583 145.479 329.053 148.615 329.367C150.966 329.68 153.474 329.837 155.826 329.994C159.275 330.151 162.567 330.151 166.016 330.151C168.21 330.151 170.562 330.151 172.757 330.151C173.07 330.151 173.384 330.151 173.697 330.151C175.892 330.151 178.087 329.68 180.438 329.523C183.73 329.21 187.022 329.053 190.314 328.583C193.607 328.113 196.899 327.329 200.034 326.545C202.229 326.075 204.58 325.761 206.775 325.134C217.905 322.312 228.566 318.236 238.442 313.376C240.637 312.279 242.831 310.868 245.026 309.771C247.534 308.36 250.199 307.106 252.551 305.538C253.021 305.225 253.491 305.068 253.962 304.754C266.817 296.446 278.574 286.413 288.607 275.125C292.683 270.422 292.213 263.368 287.353 259.606L266.503 243.459C262.27 240.166 256 240.48 252.394 244.556C245.496 252.394 237.501 259.135 228.566 264.779C225.587 266.66 222.608 268.384 219.473 269.952C217.435 271.049 215.24 271.99 213.046 272.931C212.262 273.244 211.478 273.715 210.694 274.028C201.131 277.947 190.942 280.769 180.281 282.18C173.07 283.121 165.859 283.277 158.961 282.964C157.393 282.964 155.826 282.807 154.258 282.65C152.69 282.65 151.123 282.337 149.712 282.18C146.89 281.866 144.068 281.396 141.247 280.769C140.306 280.612 139.209 280.299 138.268 280.142C135.446 279.515 132.781 278.731 130.116 277.947C129.175 277.634 128.235 277.32 127.137 277.007C124.002 275.909 120.867 274.655 117.732 273.401C115.066 275.125 112.401 277.007 109.58 278.731C102.525 283.277 94.0598 287.04 85.5944 285.786C83.3996 285.472 81.3617 284.845 80.2643 282.65C79.1669 280.612 79.1669 278.261 80.2643 276.38C83.8699 269.795 87.3188 263.211 90.9244 256.47C56.5925 228.095 39.6617 181.379 52.0463 134.976C52.2031 134.192 52.5166 133.565 52.6734 132.781C53.4572 130.116 54.3978 127.608 55.1816 125.1C55.9655 123.219 56.5925 121.337 57.5331 119.456C58.0034 118.202 58.6305 116.948 59.2576 115.694C60.5117 113.029 61.7658 110.52 63.1767 108.012C63.4903 107.385 63.8038 106.758 64.2741 106.288C65.8418 103.623 67.5662 100.958 69.4474 98.4494C69.9177 97.8224 70.388 97.1953 70.8583 96.5682C72.5827 94.3735 74.3072 92.1788 76.0316 89.984C77.129 88.7299 78.0696 87.6325 79.1669 86.5352C80.4211 85.281 81.6752 83.8701 82.9293 82.616C85.1241 80.4213 87.3188 78.3833 89.6703 76.5021C89.827 76.3453 89.9838 76.1886 90.2974 76.0318C119.613 51.733 160.372 41.5432 199.093 52.8303C201.131 53.4574 203.169 54.2413 205.207 54.8683C206.618 55.3386 208.186 55.9657 209.597 56.436C210.381 56.7495 211.164 57.2198 212.105 57.5334C221.197 61.4525 229.82 66.469 237.501 72.7397V72.4262C246.123 78.8536 253.491 86.3784 259.762 94.8438C262.897 99.2333 269.011 100.174 273.714 97.1953L295.975 83.0863C301.148 79.7942 302.403 72.7397 298.64 67.7232L298.327 67.2529Z" fill="#8774B5"/>
</g>
<defs>
<clipPath id="clip0_17_49">
<rect width="300.365" height="330.151" fill="white"/>
</clipPath>
</defs>
</svg>
