<svg width="23" height="20" viewBox="0 0 23 20" fill="none" xmlns="http://www.w3.org/2000/svg">
<path d="M4.4001 12.9598H7.04017C7.5262 12.9598 7.92019 12.5658 7.92019 12.0797C7.92019 11.5937 7.5262 11.1997 7.04017 11.1997H4.4001C3.91407 11.1997 3.52008 11.5937 3.52008 12.0797C3.52008 12.5658 3.91407 12.9598 4.4001 12.9598Z" fill="black"/>
<path d="M4.4001 9.43949H7.04017C7.5262 9.43949 7.92019 9.0455 7.92019 8.55946C7.92019 8.07343 7.5262 7.67944 7.04017 7.67944H4.4001C3.91407 7.67944 3.52008 8.07343 3.52008 8.55946C3.52008 9.0455 3.91407 9.43949 4.4001 9.43949Z" fill="black"/>
<path d="M9.56763 12.0796C9.56763 12.5657 9.96161 12.9597 10.4476 12.9597C12.2878 12.9597 14.0179 12.2431 15.3191 10.9419L21.7547 4.50564C22.7864 3.47395 22.7866 1.80389 21.7547 0.772021C20.7253 -0.25734 19.0504 -0.25734 18.021 0.772021L11.5854 7.20824C10.2843 8.50948 9.56763 10.2395 9.56763 12.0796ZM19.2656 2.01659C19.6087 1.67347 20.167 1.67347 20.5101 2.01659C20.854 2.36042 20.8542 2.91716 20.5101 3.26112L14.0745 9.69733C13.3388 10.433 12.419 10.9177 11.4189 11.1084C11.6096 10.1083 12.0943 9.1885 12.8299 8.45281L19.2656 2.01659Z" fill="black"/>
<path d="M2.64006 19.9998C3.29022 19.9998 3.91513 19.7613 4.39976 19.3279L5.61625 18.2398H14.6084C17.0346 18.2398 19.0085 16.2659 19.0085 13.8397V11.8657C19.0085 11.3796 18.6145 10.9857 18.1284 10.9857C17.6424 10.9857 17.2484 11.3796 17.2484 11.8657V13.8397C17.2484 15.2954 16.0641 16.4798 14.6084 16.4798H5.28013C5.06364 16.4798 4.85477 16.5595 4.69342 16.7039L3.22651 18.016C3.06507 18.1603 2.85681 18.2398 2.64006 18.2398C2.15482 18.2398 1.76004 17.845 1.76004 17.3598V6.79952C1.76004 5.34379 2.94438 4.15946 4.40011 4.15946H11.7812C12.2673 4.15946 12.6613 3.76547 12.6613 3.27944C12.6613 2.7934 12.2673 2.39941 11.7812 2.39941H4.40011C1.97384 2.39941 0 4.3733 0 6.79952V17.3598C0 18.8155 1.18433 19.9998 2.64006 19.9998Z" fill="black"/>
</svg>
