<svg width="390" height="438" viewBox="0 0 390 438" fill="none" xmlns="http://www.w3.org/2000/svg">
<g clip-path="url(#clip0_201_90)">
<path d="M127.005 189.711C120.091 201.285 123.829 216.118 135.403 223.033C146.977 229.947 161.81 226.209 168.725 214.635C175.639 203.061 171.901 188.228 160.327 181.313C148.753 174.399 133.92 178.137 127.005 189.711Z" fill="#8774B5"/>
<path d="M247.535 233.413C235.961 226.498 221.127 230.237 214.213 241.811C207.298 253.384 211.037 268.218 222.61 275.132C234.184 282.047 249.018 278.309 255.932 266.735C262.847 255.161 259.108 240.327 247.535 233.413Z" fill="#8774B5"/>
<path d="M352.936 210.737C349.893 180.066 338.357 150.165 318.602 124.849C315.583 121.038 312.484 117.36 309.171 113.737C308.389 112.905 307.608 112.073 306.827 111.241C305.319 109.792 303.971 108.074 302.463 106.625C301.278 105.552 300.147 104.694 298.962 103.62C297.05 101.93 295.138 100.24 293.145 98.6846C290.964 96.8337 288.568 95.0369 286.306 93.3205C284.179 91.6846 281.972 90.1832 279.549 88.736C277.127 87.2887 274.785 85.7069 272.228 84.1793C269.94 82.8125 267.652 81.4457 265.338 80.4285C262.701 79.0354 260.063 77.6424 257.48 76.4643C256.538 75.9015 255.596 75.3387 254.628 75.1255C253.202 74.4561 251.749 74.1362 250.323 73.4668C247.659 72.4233 244.996 71.3798 242.252 70.4709C239.373 69.4816 236.414 68.6269 233.455 67.7722C231.384 67.2653 229.259 66.5434 227.107 66.1711C223.449 65.264 219.845 64.5718 216.161 64.0142C214.843 63.7747 213.525 63.5352 212.127 63.4304C207.743 62.8203 203.414 62.4252 199.085 62.0302C198.386 61.9777 197.687 61.9253 196.987 61.8728C192.013 61.6403 187.093 61.6227 182.227 61.8202C182.093 61.7398 181.663 61.8481 181.448 61.9023C176.232 62.0735 170.991 62.5943 165.803 63.33C109.063 70.8849 57.9164 107.895 35.0387 165.446C21.2847 199.778 20.2792 236.613 29.8339 270.443C36.4402 294.843 48.5014 317.753 66.1486 337.427C67.7111 339.09 69.354 340.62 70.9969 342.149C72.8285 343.974 74.5256 345.718 76.3573 347.543C78.3235 349.448 80.5047 351.299 82.5514 353.07C85.0018 355.081 87.4521 357.093 89.9829 358.97C91.8408 360.445 93.9137 361.866 95.8519 363.207C98.7323 365.11 101.558 366.799 104.519 368.568C106.403 369.693 108.422 370.899 110.306 372.025C110.575 372.186 110.844 372.346 111.114 372.507C112.998 373.633 115.123 374.355 117.222 375.426C120.209 376.845 123.116 378.399 126.183 379.684C129.25 380.969 132.478 381.984 135.572 382.919C137.697 383.641 139.877 384.578 142.083 385.165C153.085 388.451 164.327 390.419 175.298 391.313C177.744 391.496 180.352 391.411 182.799 391.594C185.676 391.669 188.607 391.96 191.43 391.82C191.994 391.792 192.478 391.899 193.043 391.871C208.34 391.331 223.579 388.748 237.981 384.204C243.892 382.257 247.106 375.959 244.864 370.237L235.246 345.682C233.301 340.685 227.757 337.738 222.571 339.388C212.629 342.58 202.309 344.266 191.743 344.528C188.221 344.615 184.78 344.568 181.284 344.306C178.972 344.203 176.606 343.885 174.239 343.566C173.405 343.434 172.491 343.435 171.658 343.302C161.438 341.762 151.243 338.959 141.368 334.703C134.695 331.812 128.424 328.248 122.664 324.441C121.318 323.637 120.053 322.699 118.787 321.76C117.441 320.956 116.256 319.883 115.126 319.025C112.864 317.308 110.683 315.457 108.582 313.472C107.855 312.855 107.074 312.023 106.346 311.406C104.246 309.42 102.36 307.381 100.474 305.341C99.8273 304.589 99.1806 303.838 98.3994 303.006C96.2706 300.456 94.2223 297.771 92.1739 295.087C89.0016 295.2 85.749 295.448 82.4421 295.481C74.0545 295.766 64.8576 294.654 58.2335 289.236C56.5102 287.841 55.0823 286.258 55.2658 283.811C55.369 281.499 56.575 279.48 58.4819 278.428C64.954 274.625 71.2916 270.741 77.8441 266.804C62.9238 224.837 72.3487 176.049 106.779 142.565C107.316 141.973 107.906 141.595 108.443 141.003C110.483 139.117 112.577 137.446 114.536 135.695C116.174 134.482 117.677 133.189 119.449 132.056C120.496 131.221 121.677 130.466 122.859 129.711C125.302 128.066 127.665 126.556 130.163 125.126C130.754 124.749 131.345 124.371 131.989 124.209C134.702 122.725 137.549 121.321 140.451 120.133C141.176 119.836 141.901 119.539 142.627 119.242C145.233 118.242 147.839 117.242 150.445 116.243C152.03 115.729 153.4 115.269 154.905 114.89C156.625 114.456 158.425 113.888 160.145 113.455C163.155 112.696 166.084 112.073 169.067 111.664C169.282 111.609 169.497 111.555 169.847 111.581C207.475 105.757 247.692 117.913 275.144 147.462C276.572 149.045 277.92 150.763 279.347 152.347C280.317 153.474 281.342 154.817 282.312 155.944C282.824 156.615 283.255 157.421 283.902 158.172C289.698 166.2 294.527 174.929 297.905 184.251L298.066 183.982C302.171 193.922 304.637 204.161 305.679 214.644C306.119 220.02 310.885 223.963 316.45 223.818L342.797 223.123C348.926 222.95 353.621 217.537 352.964 211.301L352.936 210.737Z" fill="#8774B5"/>
</g>
<defs>
<clipPath id="clip0_201_90">
<rect width="300.365" height="330.151" fill="white" transform="translate(131.324) rotate(30.8551)"/>
</clipPath>
</defs>
</svg>
