<svg width="24" height="24" viewBox="0 0 24 24" fill="none" xmlns="http://www.w3.org/2000/svg">
<path d="M20.8252 5.39695L16.947 1.5187C16.5 1.0717 15.9052 0.824951 15.2723 0.824951H8.01225C6.70575 0.824951 5.64225 1.8877 5.64225 3.19495V3.98995H4.84725C3.543 3.98995 2.48175 5.0512 2.48175 6.35545V20.8095C2.48175 22.1137 3.543 23.1749 4.84725 23.1749H15.9937C17.298 23.1749 18.3592 22.1137 18.3592 20.8095V20.0122H19.1497C20.4555 20.0122 21.5182 18.9494 21.5182 17.6444V7.0702C21.5182 6.4477 21.2655 5.8372 20.8252 5.39695ZM19.2112 5.69245H17.6617C17.1037 5.69245 16.6492 5.2387 16.6492 4.67995V3.13045L19.2112 5.69245ZM17.0092 20.8095C17.0092 21.3697 16.554 21.8249 15.9937 21.8249H4.84725C4.28775 21.8249 3.83175 21.3697 3.83175 20.8095V6.35545C3.83175 5.7952 4.287 5.33995 4.84725 5.33995H5.643V17.6452C5.643 18.9502 6.70575 20.0122 8.01075 20.0122H17.0092V20.8095ZM20.1682 17.6444C20.1682 18.2062 19.7122 18.6622 19.1505 18.6622H8.01075C7.44975 18.6622 6.99375 18.2062 6.99375 17.6452V3.19495C6.99375 2.63245 7.4505 2.17495 8.013 2.17495H15.273C15.282 2.17495 15.2902 2.1802 15.2992 2.1802V4.67995C15.2992 5.9827 16.359 7.04245 17.6617 7.04245H20.1622C20.1622 7.0522 20.1675 7.06045 20.1675 7.0702V17.6444H20.1682Z" fill="black"/>
<path d="M9.92097 10.3312H12.8355C13.2082 10.3312 13.5105 10.029 13.5105 9.6562C13.5105 9.28345 13.2082 8.9812 12.8355 8.9812H9.92097C9.54822 8.9812 9.24597 9.28345 9.24597 9.6562C9.24597 10.029 9.54747 10.3312 9.92097 10.3312Z" fill="black"/>
<path d="M17.2402 12.1785H9.92024C9.54749 12.1785 9.24524 12.4807 9.24524 12.8535C9.24524 13.2262 9.54749 13.5285 9.92024 13.5285H17.2402C17.613 13.5285 17.9152 13.2262 17.9152 12.8535C17.9152 12.4807 17.613 12.1785 17.2402 12.1785Z" fill="black"/>
<path d="M15.7027 15.3757H9.92097C9.54822 15.3757 9.24597 15.678 9.24597 16.0507C9.24597 16.4235 9.54822 16.7257 9.92097 16.7257H15.7027C16.0755 16.7257 16.3777 16.4235 16.3777 16.0507C16.3777 15.678 16.0755 15.3757 15.7027 15.3757Z" fill="black"/>
</svg>
