<svg width="22" height="22" viewBox="0 0 22 22" fill="none" xmlns="http://www.w3.org/2000/svg">
<path d="M8.51134 16.7241H3.48419C3.20929 16.7241 2.98645 16.947 2.98645 17.2219C2.98645 17.4968 3.20929 17.7196 3.48419 17.7196H8.51134C8.78624 17.7196 9.00907 17.4968 9.00907 17.2219C9.00907 16.947 8.78624 16.7241 8.51134 16.7241Z" fill="black"/>
<path d="M16.0271 16.7241H11C10.7251 16.7241 10.5023 16.947 10.5023 17.2219C10.5023 17.4968 10.7251 17.7196 11 17.7196H16.0271C16.302 17.7196 16.5249 17.4968 16.5249 17.2219C16.5249 16.947 16.302 16.7241 16.0271 16.7241Z" fill="black"/>
<path d="M16.0272 4.28052H3.48419C3.20929 4.28052 2.98645 4.50335 2.98645 4.77826C2.98645 5.05316 3.20929 5.27599 3.48419 5.27599H16.0272C16.302 5.27599 16.5249 5.05316 16.5249 4.77826C16.5249 4.50335 16.302 4.28052 16.0272 4.28052Z" fill="black"/>
<path d="M16.0271 6.76929H11C10.7251 6.76929 10.5023 6.99212 10.5023 7.26702C10.5023 7.54193 10.7251 7.76476 11 7.76476H16.0271C16.302 7.76476 16.5249 7.54193 16.5249 7.26702C16.5249 6.99212 16.302 6.76929 16.0271 6.76929Z" fill="black"/>
<path d="M16.0271 9.25806H11C10.7251 9.25806 10.5023 9.48089 10.5023 9.75579C10.5023 10.0307 10.7251 10.2535 11 10.2535H16.0271C16.302 10.2535 16.5249 10.0307 16.5249 9.75579C16.5249 9.48089 16.302 9.25806 16.0271 9.25806Z" fill="black"/>
<path d="M16.0271 11.7466H11C10.7251 11.7466 10.5023 11.9694 10.5023 12.2443C10.5023 12.5192 10.7251 12.7421 11 12.7421H16.0271C16.302 12.7421 16.5249 12.5192 16.5249 12.2443C16.5249 11.9694 16.302 11.7466 16.0271 11.7466Z" fill="black"/>
<path d="M16.0271 14.2354H11C10.7251 14.2354 10.5023 14.4582 10.5023 14.7331C10.5023 15.008 10.7251 15.2308 11 15.2308H16.0271C16.302 15.2308 16.5249 15.008 16.5249 14.7331C16.5249 14.4582 16.302 14.2354 16.0271 14.2354Z" fill="black"/>
<path d="M8.51134 14.2354H3.48419C3.20929 14.2354 2.98645 14.4582 2.98645 14.7331C2.98645 15.008 3.20929 15.2308 3.48419 15.2308H8.51134C8.78624 15.2308 9.00907 15.008 9.00907 14.7331C9.00907 14.4582 8.78624 14.2354 8.51134 14.2354Z" fill="black"/>
<path d="M8.51134 6.76929H3.48419C3.20929 6.76929 2.98645 6.99212 2.98645 7.26702V12.2942C2.98645 12.5691 3.20929 12.7919 3.48419 12.7919H8.51134C8.78624 12.7919 9.00907 12.5691 9.00907 12.2942V7.26702C9.00907 6.99212 8.78624 6.76929 8.51134 6.76929ZM8.0136 11.7964H3.98193V7.76476H8.0136V11.7964Z" fill="black"/>
<path d="M21.0045 3.78288H19.5113V2.28966C19.5113 1.74076 19.0647 1.29419 18.5158 1.29419H0.995475C0.44657 1.29419 0 1.74076 0 2.28966V18.2173C0 19.5895 1.11643 20.706 2.48869 20.706H19.5113C20.8836 20.706 22 19.5895 22 18.2173V4.77835C22 4.22945 21.5534 3.78288 21.0045 3.78288ZM21.0045 18.2173C21.0045 19.0406 20.3347 19.7105 19.5113 19.7105H2.48869C1.66533 19.7105 0.995475 19.0406 0.995475 18.2173V2.28966H18.5158V17.4707C18.5158 18.1568 19.0741 18.715 19.7602 18.715C20.035 18.715 20.2579 18.4922 20.2579 18.2173C20.2579 17.9424 20.035 17.7195 19.7602 17.7195C19.623 17.7195 19.5113 17.6079 19.5113 17.4707V4.77835H21.0045V18.2173Z" fill="black"/>
</svg>
