<svg width="15" height="21" viewBox="0 0 15 21" fill="none" xmlns="http://www.w3.org/2000/svg">
<path fill-rule="evenodd" clip-rule="evenodd" d="M0.539588 0.566324C0.885709 0.203093 1.35555 0 1.84373 0H13.1563C13.6445 0 14.1143 0.203124 14.4605 0.56636C14.4606 0.566445 14.4606 0.566529 14.4607 0.566613C14.8066 0.929455 15 1.42108 15 1.93319V19.4727C15 20.3167 14.3472 21 13.5428 21C13.1377 21 12.7538 20.8312 12.4691 20.5343L12.4677 20.5328C11.6446 19.6685 9.17496 17.0796 8.15703 16.0142L8.15548 16.0126C7.98356 15.8313 7.7471 15.7281 7.50002 15.7281C7.25292 15.7281 7.01647 15.8313 6.84449 16.0126L6.84296 16.0142C6.15662 16.7325 4.8108 18.1433 3.7537 19.2513C3.24786 19.7816 2.80813 20.2425 2.5384 20.5251C2.24983 20.8284 1.85883 21 1.44779 21H1.44462C0.644968 21 0 20.3201 0 19.4839V1.93319C0 1.42111 0.193337 0.929495 0.539278 0.566649C0.53933 0.566595 0.539382 0.566541 0.539433 0.566487C0.539485 0.566433 0.539536 0.566378 0.539588 0.566324ZM1.84373 1.23047C1.66574 1.23047 1.49483 1.30469 1.36962 1.43614L1.36931 1.43647C1.24401 1.56783 1.1735 1.74627 1.1735 1.93319V19.4839C1.1735 19.6428 1.2953 19.7695 1.44462 19.7695H1.44779C1.54551 19.7695 1.63811 19.7292 1.70771 19.656L1.70864 19.655C1.97782 19.373 2.41701 18.9126 2.92245 18.3828C3.97951 17.2747 5.32627 15.8631 6.0133 15.144C6.40687 14.7296 6.94299 14.4977 7.50002 14.4977C8.05697 14.4977 8.59313 14.7295 8.98668 15.144C10.005 16.2098 12.4729 18.7968 13.2972 19.6624C13.3644 19.7322 13.4515 19.7695 13.5428 19.7695C13.7 19.7695 13.8265 19.6363 13.8265 19.4727V1.93319C13.8265 1.74626 13.756 1.56781 13.6307 1.43643L13.6305 1.43618C13.5052 1.30468 13.3343 1.23047 13.1563 1.23047H1.84373Z" fill="black"/>
</svg>
